<?xml version="1.0" encoding="UTF-8" standalone="no"?>
<!DOCTYPE svg PUBLIC "-//W3C//DTD SVG 1.1//EN" "http://www.w3.org/Graphics/SVG/1.1/DTD/svg11.dtd">
<svg width="100%" height="100%" viewBox="0 0 1000 1000" version="1.1" xmlns="http://www.w3.org/2000/svg" xmlns:xlink="http://www.w3.org/1999/xlink" xml:space="preserve" xmlns:serif="http://www.serif.com/" style="fill-rule:evenodd;clip-rule:evenodd;stroke-linejoin:round;stroke-miterlimit:1.5;">
    <g id="Box">
        <g transform="matrix(-1.706062,0.984996,-0,2.27475,1196.831642,-442.520569)">
            <path d="M408.444,240C424.582,312.042 424.539,336.753 408.444,423.803L169.778,423.803L169.778,240L408.444,240Z" style="fill:url(#_Linear1);"/>
        </g>
        <g transform="matrix(1.706062,0.984996,0,2.27475,-196.831642,-442.520569)">
            <path d="M408.444,240C407.707,315.902 410.47,339.943 408.444,423.803L169.778,423.803L169.778,240L408.444,240Z" style="fill:url(#_Linear2);"/>
        </g>
        <g transform="matrix(1.969991,0,0,2.18634,-387.392277,-474.305538)">
            <path d="M243.764,433.456L451.111,537.748L657.146,435.221" style="fill:none;stroke:rgb(0,96,124);stroke-width:0.96px;"/>
        </g>
        <g transform="matrix(1.969991,0,0,1.22598,-387.392277,-119.365892)">
            <path d="M243.764,313.917L450.455,437.877L657.146,313.917L450.455,198.374L243.764,313.917Z" style="fill:url(#_Linear3);"/>
        </g>
        <g transform="matrix(1.969991,0,0,1.969991,-387.392277,-347.763645)">
            <path d="M352.343,351.823L547.554,277.485" style="fill:none;stroke:rgb(0,35,45);stroke-width:10.15px;"/>
        </g>
        <g transform="matrix(1.969991,0,0,1.969991,-387.392277,-347.763645)">
            <path d="M353.356,277.485L548.567,351.823" style="fill:none;stroke:rgb(0,35,45);stroke-width:10.15px;"/>
        </g>
        <g transform="matrix(1.969991,0,0,1.969991,-387.392277,-347.763645)">
            <path d="M243.764,311.397L243.764,313.917L450.455,433.456L657.146,313.917L657.146,310.187L450.455,388.441L243.764,311.397Z" style="fill:rgb(0,197,255);"/>
        </g>
    </g>
    <g>
        <g id="Layer1">
            <g transform="matrix(0.707107,-0.707107,0.707107,0.707107,-211.065949,485.340884)">
                <path d="M393.68,323.922C380.329,382.06 358.539,476.575 331.105,593.612C279.6,575.523 228.735,557.273 178.664,538.937C192.362,480.498 214.52,385.603 241.238,269.247C291.313,287.583 342.179,305.833 393.68,323.922Z" style="fill:rgb(0,197,255);"/>
            </g>
            <g transform="matrix(0.54695,-0.947346,0.947346,0.54695,-195.741236,679.038176)">
                <path d="M300.409,401.834C305.525,387.288 310.642,372.743 315.759,358.197C317.606,358.489 319.453,358.781 321.301,359.074C317.226,370.664 313.151,382.255 309.077,393.845C316.343,394.984 323.608,396.122 330.874,397.261C329.836,400.214 328.798,403.166 327.76,406.119C318.643,404.691 309.526,403.262 300.409,401.834Z"/>
            </g>
            <g transform="matrix(-0.54695,0.947346,-0.947346,-0.54695,1195.741236,320.786439)">
                <path d="M625.961,643.804C631.07,629.263 636.179,614.722 641.288,600.181C643.129,600.477 644.969,600.773 646.809,601.07C642.734,612.66 638.659,624.251 634.584,635.842C641.794,637.013 649.003,638.184 656.213,639.355C655.175,642.308 654.137,645.26 653.099,648.213C644.053,646.743 635.007,645.274 625.961,643.804Z"/>
            </g>
            <g transform="matrix(0.560451,0,0,0.560451,427.293174,26.398643)">
                <path d="M-330.614,923.407C-320.215,883.952 -280.752,872.37 -233.844,898.78C-186.796,925.27 -147.464,981.404 -137.074,1032.833C-141.618,1030.264 -146.161,1027.695 -150.705,1025.126C-160.782,981.539 -194.163,934.843 -233.844,912.486C-273.462,890.164 -306.908,899.117 -316.983,931.114C-321.526,928.545 -326.07,925.976 -330.614,923.407ZM-137.074,1080.787C-147.454,1120.415 -186.763,1132.073 -233.844,1105.275C-280.718,1078.595 -320.204,1022.365 -330.614,971.084C-326.07,973.66 -321.526,976.235 -316.983,978.811C-306.89,1022.293 -273.405,1069.068 -233.844,1091.57C-194.105,1114.172 -160.764,1105.18 -150.705,1073.06C-146.161,1075.636 -141.618,1078.211 -137.074,1080.787Z"/>
            </g>
        </g>
    </g>
    <g>
        <g id="Layer11" serif:id="Layer1">
            <g transform="matrix(0.707107,-0.707107,0.707107,0.707107,-211.065949,485.340884)">
                <path d="M687.041,617.245C699.692,665.353 711.759,713.161 723.226,760.511C642.782,783.181 562.337,805.851 481.893,828.52C470.428,781.175 458.361,733.368 445.709,685.255C526.153,662.585 606.597,639.915 687.041,617.245Z" style="fill:rgb(0,197,255);"/>
            </g>
            <g transform="matrix(0.54695,-0.947346,0.947346,0.54695,-195.741236,679.038176)">
                <path d="M535.294,698.087C531.783,690.148 528.272,682.209 524.761,674.271C527.524,673.802 530.287,673.334 533.05,672.866C535.852,679.194 538.655,685.522 541.458,691.85C552.323,690.018 563.189,688.185 574.054,686.352C574.768,687.964 575.482,689.576 576.196,691.188C562.562,693.488 548.928,695.787 535.294,698.087Z"/>
            </g>
            <g transform="matrix(-0.54695,0.947346,-0.947346,-0.54695,1195.741236,320.786439)">
                <path d="M471.967,284.172C468.445,276.231 464.923,268.289 461.401,260.347C464.154,259.875 466.907,259.404 469.66,258.932C472.462,265.26 475.265,271.589 478.067,277.917C488.854,276.06 499.641,274.203 510.427,272.346C511.142,273.958 511.856,275.571 512.57,277.183C499.036,279.513 485.501,281.843 471.967,284.172Z"/>
            </g>
            <g transform="matrix(0.560451,0,0,0.560451,427.293174,26.398643)">
                <path d="M427.442,1017.78C435.562,968.623 468.764,916.635 508.788,893.64C548.883,870.603 582.988,884.031 592.395,923.158C588.522,925.38 584.65,927.601 580.777,929.823C571.721,898.015 542.817,887.477 508.983,906.911C475.216,926.307 447.051,969.523 439.06,1011.115C435.187,1013.337 431.315,1015.558 427.442,1017.78ZM592.948,969.58C584.649,1018.653 551.673,1070.748 511.731,1093.6C471.819,1116.435 437.843,1102.69 428.252,1063.962C432.118,1061.746 435.985,1059.53 439.851,1057.315C449.03,1088.843 477.834,1099.616 511.535,1080.328C545.242,1061.039 573.238,1017.755 581.349,976.227C585.215,974.012 589.082,971.796 592.948,969.58Z"/>
            </g>
        </g>
    </g>
    <defs>
        <linearGradient id="_Linear1" x1="0" y1="0" x2="1" y2="0" gradientUnits="userSpaceOnUse" gradientTransform="matrix(226.805012,-98.209451,0,-170.103759,181.639426,396.016502)"><stop offset="0" style="stop-color:black;stop-opacity:1"/><stop offset="1" style="stop-color:rgb(0,87,113);stop-opacity:1"/></linearGradient>
        <linearGradient id="_Linear2" x1="0" y1="0" x2="1" y2="0" gradientUnits="userSpaceOnUse" gradientTransform="matrix(227.789396,-98.635702,-0,170.842047,180.655042,378.864234)"><stop offset="0" style="stop-color:black;stop-opacity:1"/><stop offset="1" style="stop-color:rgb(0,71,92);stop-opacity:1"/></linearGradient>
        <linearGradient id="_Linear3" x1="0" y1="0" x2="1" y2="0" gradientUnits="userSpaceOnUse" gradientTransform="matrix(0,187.396697,-116.622178,0,450.454987,229.151678)"><stop offset="0" style="stop-color:black;stop-opacity:1"/><stop offset="1" style="stop-color:rgb(0,76,86);stop-opacity:1"/></linearGradient>
    </defs>
</svg>
