<?xml version="1.0" encoding="UTF-8" standalone="no"?>
<!DOCTYPE svg PUBLIC "-//W3C//DTD SVG 1.1//EN" "http://www.w3.org/Graphics/SVG/1.1/DTD/svg11.dtd">
<svg width="100%" height="100%" viewBox="0 0 100 100" version="1.1" xmlns="http://www.w3.org/2000/svg" xmlns:xlink="http://www.w3.org/1999/xlink" xml:space="preserve" xmlns:serif="http://www.serif.com/" style="fill-rule:evenodd;clip-rule:evenodd;stroke-linejoin:round;stroke-miterlimit:2;">
    <g id="Layer1">
        <g transform="matrix(1,0,0,1,1.379506,0.492967)">
            <rect x="10.993" y="11.879" width="56.073" height="56.073" style="fill:white;"/>
        </g>
        <g transform="matrix(0,-1,1,0,-23.008713,71.620002)">
            <path d="M27.086,42.879L27.086,51.594L18.371,51.594L18.371,45.967L21.064,42.879L27.086,42.879Z" style="fill:rgb(255,0,0);"/>
        </g>
        <g transform="matrix(1,0,0,1,1.468161,-10.800246)">
            <rect x="18.371" y="42.879" width="8.715" height="8.715" style="fill:rgb(255,0,0);"/>
        </g>
        <g transform="matrix(1,0,0,1,1.468161,-23.245944)">
            <path d="M27.086,42.879L27.086,51.594L18.371,51.594L18.371,45.967L21.064,42.879L27.086,42.879Z" style="fill:rgb(255,0,0);"/>
        </g>
        <g transform="matrix(0,1,-1,0,96.324096,1.261857)">
            <path d="M27.086,42.879L27.086,51.594L18.371,51.594L18.371,45.967L21.064,42.879L27.086,42.879Z" style="fill:rgb(255,0,0);"/>
        </g>
        <g transform="matrix(0,-1,1,0,-10.593942,46.718595)">
            <rect x="18.371" y="42.879" width="8.715" height="8.715" style="fill:rgb(255,0,0);"/>
        </g>
        <g transform="matrix(1,0,0,1,1.468161,1.645452)">
            <path d="M51.977,51.604L51.977,26.702L54.113,26.702L59.536,32.54L59.536,51.604L66.977,51.604L66.977,59.163L59.536,59.163L59.536,66.8L51.977,66.8L51.977,59.163L32.717,59.163L27.117,53.739L27.117,51.604L51.977,51.604Z" style="fill:rgb(150,150,150);"/>
        </g>
        <g transform="matrix(0.706522,0,0,0.706522,18.05264,17.908292)">
            <circle cx="55.489" cy="55.414" r="3.421" style="fill:rgb(204,204,204);"/>
        </g>
        <g transform="matrix(0.981651,0,0,1.136849,2.697111,-5.416444)">
            <path d="M78.549,58.259L66.977,58.259L66.977,51.604L71.288,51.604C71.426,55.297 74.238,58.259 78.549,58.259Z" style="fill:rgb(12,141,196);"/>
        </g>
        <g transform="matrix(1,0,0,1,1.941026,1.100052)">
            <path d="M77.864,44.07C82.181,44.07 85.687,47.575 85.687,51.892C85.687,56.21 82.181,59.715 77.864,59.715C73.546,59.715 70.041,56.21 70.041,51.892C70.041,47.575 73.546,44.07 77.864,44.07ZM77.864,46.07C74.65,46.07 72.041,48.679 72.041,51.892C72.041,55.106 74.65,57.715 77.864,57.715C81.078,57.715 83.687,55.106 83.687,51.892C83.687,48.679 81.078,46.07 77.864,46.07Z" style="fill:rgb(12,141,196);"/>
        </g>
        <g transform="matrix(-0,0.981651,1.136849,0,-5.220154,2.697124)">
            <path d="M78.549,58.259L66.977,58.259L66.977,51.604L71.288,51.604C71.426,55.297 74.238,58.259 78.549,58.259Z" style="fill:rgb(12,141,196);"/>
        </g>
        <g transform="matrix(-0,1,1,0,1.296341,1.941039)">
            <path d="M77.864,44.07C73.546,44.07 70.041,47.575 70.041,51.892C70.041,56.21 73.546,59.715 77.864,59.715C82.181,59.715 85.687,56.21 85.687,51.892C85.687,47.575 82.181,44.07 77.864,44.07ZM77.864,46.07C81.078,46.07 83.687,48.679 83.687,51.892C83.687,55.106 81.078,57.715 77.864,57.715C74.65,57.715 72.041,55.106 72.041,51.892C72.041,48.679 74.65,46.07 77.864,46.07Z" style="fill:rgb(12,141,196);"/>
        </g>
    </g>
    <g id="Layer2">
        <g transform="matrix(1.309942,0,0,1.016475,-12.309824,-1.119611)">
            <rect x="26.689" y="23.385" width="41.756" height="53.812" style="fill:rgb(255,187,0);fill-opacity:0.47;"/>
        </g>
        <g transform="matrix(1.09868,0,0,1.922429,8.910652,-59.646651)">
            <rect x="25.463" y="47.509" width="6.243" height="19.054" style="fill:rgb(255,199,45);fill-opacity:0.36;"/>
            <path d="M31.706,47.509L31.706,66.562L25.463,66.562L25.463,47.509L31.706,47.509ZM30.796,48.029L26.374,48.029L26.374,66.042L30.796,66.042L30.796,48.029Z" style="fill:rgb(255,185,0);"/>
        </g>
        <g transform="matrix(1.09868,0,0,1.922429,28.277999,-59.646651)">
            <rect x="25.463" y="47.509" width="6.243" height="19.054" style="fill:rgb(255,199,45);fill-opacity:0.36;"/>
            <path d="M31.706,47.509L31.706,66.562L25.463,66.562L25.463,47.509L31.706,47.509ZM30.796,48.029L26.374,48.029L26.374,66.042L30.796,66.042L30.796,48.029Z" style="fill:rgb(255,185,0);"/>
        </g>
    </g>
</svg>
