<?xml version="1.0" encoding="UTF-8" standalone="no"?>
<!DOCTYPE svg PUBLIC "-//W3C//DTD SVG 1.1//EN" "http://www.w3.org/Graphics/SVG/1.1/DTD/svg11.dtd">
<svg width="100%" height="100%" viewBox="0 0 100 100" version="1.1" xmlns="http://www.w3.org/2000/svg" xmlns:xlink="http://www.w3.org/1999/xlink" xml:space="preserve" xmlns:serif="http://www.serif.com/" style="fill-rule:evenodd;clip-rule:evenodd;stroke-linejoin:round;stroke-miterlimit:2;">
    <g transform="matrix(1.436107,0,0,1.436107,-33.200019,-37.2627)">
        <path d="M57.934,34.131L85.497,81.871L30.372,81.871L57.934,34.131Z" style="fill:rgb(255,232,0);"/>
        <path d="M57.934,34.131L85.497,81.871L30.372,81.871L57.934,34.131ZM57.934,39.93L35.394,78.971L80.475,78.971L57.934,39.93Z"/>
    </g>
    <g transform="matrix(1,0,0,1,4.303192,10.348936)">
        <rect x="42.077" y="54.433" width="7.24" height="7.24"/>
        <rect x="42.077" y="54.433" width="7.24" height="7.24"/>
    </g>
    <g transform="matrix(1,0,0,3.846394,4.303192,-175.59122)">
        <rect x="42.077" y="54.433" width="7.24" height="7.24"/>
        <rect x="42.077" y="54.433" width="7.24" height="7.24"/>
    </g>
</svg>
